<svg width="609" height="561" viewBox="0 0 609 561" fill="none" xmlns="http://www.w3.org/2000/svg">
<g clip-path="url(#clip0_1_3341)">
<path d="M273.651 447.364C271.391 447.364 269.193 446.191 267.981 444.092C266.174 440.964 267.246 436.963 270.375 435.157L285.325 426.525C288.452 424.72 292.454 425.791 294.26 428.92C296.067 432.048 294.995 436.049 291.866 437.855L276.916 446.486C275.886 447.08 274.761 447.364 273.651 447.364Z" fill="#E279B3"/>
<path d="M192.375 433.14C191.265 433.14 190.14 432.858 189.11 432.263L174.16 423.632C171.031 421.825 169.959 417.826 171.766 414.696C173.571 411.567 177.571 410.496 180.701 412.302L195.651 420.933C198.78 422.739 199.852 426.739 198.046 429.869C196.835 431.967 194.635 433.14 192.375 433.14Z" fill="#B2E5FB"/>
<path d="M56.5558 421.534C54.2951 421.534 52.0963 420.361 50.8848 418.263C49.0785 415.133 50.1505 411.132 53.279 409.327L68.2291 400.696C71.3585 398.89 75.3592 399.961 77.1646 403.09C78.9709 406.219 77.899 410.22 74.7704 412.026L59.8204 420.657C58.7903 421.252 57.6652 421.534 56.5558 421.534Z" fill="#E279B3"/>
<path d="M6.54838 402.612C4.28768 402.612 2.08978 401.439 0.877449 399.341C-0.928842 396.212 0.14307 392.212 3.27159 390.405L18.2217 381.774C21.3493 379.97 25.35 381.039 27.1572 384.168C28.9635 387.297 27.8916 391.297 24.7631 393.104L9.81296 401.735C8.78291 402.33 7.6578 402.612 6.54838 402.612Z" fill="#B2E5FB"/>
<path d="M28.0462 205.249C25.7855 205.249 23.5876 204.076 22.3753 201.977C20.569 198.849 21.6409 194.848 24.7694 193.042L39.7195 184.411C42.8471 182.606 46.8478 183.675 48.655 186.805C50.4613 189.933 49.3894 193.934 46.2609 195.74L31.3108 204.371C30.2807 204.966 29.1556 205.249 28.0462 205.249Z" fill="#B2E5FB"/>
<path d="M345.162 14.9438C345.162 12.6831 346.335 10.4852 348.434 9.27283C351.562 7.46654 355.563 8.53846 357.369 11.667L366 26.6171C367.805 29.7447 366.736 33.7454 363.606 35.5526C360.478 37.3589 356.477 36.287 354.671 33.1584L346.04 18.2083C345.445 17.1783 345.162 16.0532 345.162 14.9438Z" fill="#B2E5FB"/>
<path d="M136.151 396.775C133.89 396.775 131.692 395.602 130.48 393.503C128.674 390.375 129.746 386.374 132.874 384.568L147.824 375.936C150.952 374.131 154.953 375.201 156.76 378.331C158.566 381.459 157.494 385.46 154.366 387.266L139.415 395.897C138.385 396.491 137.26 396.775 136.151 396.775Z" fill="#F8E883"/>
<path d="M38.4971 306.358C37.3876 306.358 36.2625 306.076 35.2325 305.481L20.2824 296.85C17.1539 295.044 16.082 291.043 17.8883 287.914C19.6937 284.785 23.6961 283.714 26.8238 285.52L41.7739 294.151C44.9024 295.958 45.9743 299.958 44.168 303.087C42.9565 305.185 40.7578 306.358 38.4971 306.358Z" fill="#E279B3"/>
<path d="M441.661 229.678C440.552 229.678 439.427 229.396 438.397 228.801L423.446 220.17C420.318 218.363 419.246 214.363 421.052 211.234C422.858 208.105 426.86 207.034 429.988 208.84L444.938 217.471C448.066 219.277 449.138 223.278 447.332 226.407C446.121 228.505 443.922 229.678 441.661 229.678Z" fill="#E279B3"/>
<path d="M339.892 288.915C337.631 288.915 335.433 287.742 334.221 285.643C332.415 282.515 333.487 278.514 336.615 276.708L351.565 268.077C354.693 266.272 358.694 267.341 360.501 270.471C362.307 273.599 361.235 277.6 358.107 279.406L343.156 288.037C342.127 288.631 341.002 288.915 339.892 288.915Z" fill="#F8E883"/>
<path d="M211.31 180.389C210.201 180.389 209.076 180.106 208.046 179.511L193.096 170.88C189.967 169.074 188.895 165.073 190.702 161.945C192.506 158.815 196.509 157.744 199.637 159.55L214.587 168.182C217.716 169.988 218.788 173.989 216.981 177.117C215.771 179.216 213.571 180.389 211.31 180.389Z" fill="#F8E883"/>
<path d="M293.222 150.591C292.113 150.591 290.988 150.308 289.958 149.713L275.008 141.082C271.879 139.276 270.807 135.275 272.614 132.147C274.419 129.017 278.421 127.946 281.549 129.753L296.499 138.384C299.628 140.19 300.7 144.191 298.893 147.319C297.683 149.418 295.483 150.591 293.222 150.591Z" fill="#B2E5FB"/>
<path d="M42.7027 93.8535C40.442 93.8535 38.2441 92.6804 37.0317 90.5819C35.2255 87.4534 36.2974 83.4527 39.4259 81.6464L54.376 73.0153C57.5028 71.2107 61.5052 72.28 63.3115 75.4094C65.1178 78.538 64.0459 82.5387 60.9173 84.3449L45.9673 92.9761C44.9381 93.5709 43.813 93.8535 42.7027 93.8535Z" fill="#F8E883"/>
<path d="M426.723 176.911C424.463 176.911 422.265 175.738 421.052 173.64C419.246 170.511 420.318 166.51 423.446 164.704L438.397 156.073C441.523 154.268 445.526 155.338 447.332 158.467C449.138 161.596 448.066 165.596 444.938 167.403L429.988 176.034C428.959 176.629 427.834 176.911 426.723 176.911Z" fill="#F8E883"/>
<path d="M199.532 22.5216C197.271 22.5216 195.073 21.3485 193.861 19.25C192.055 16.1215 193.127 12.1208 196.255 10.3145L211.204 1.68338C214.332 -0.121164 218.333 0.948132 220.14 4.07752C221.946 7.20605 220.874 11.2067 217.746 13.013L202.796 21.6442C201.766 22.239 200.641 22.5216 199.532 22.5216Z" fill="#E279B3"/>
</g>
<defs>
<clipPath id="clip0_1_3341">
<rect width="609" height="559.387" fill="white" transform="translate(0 0.806519)"/>
</clipPath>
</defs>
</svg>
