<svg width="28" height="28" viewBox="0 0 28 28" fill="none" xmlns="http://www.w3.org/2000/svg">
<path fill-rule="evenodd" clip-rule="evenodd" d="M8.00688 6.01489H12.4946C14.6101 6.01489 15.6679 6.01489 16.3251 6.6721C16.9823 7.32932 16.9823 8.38708 16.9823 10.5026V24.2463H18.6652H23.7139H24.8358C25.3006 24.2463 25.6773 24.623 25.6773 25.0877C25.6773 25.5524 25.3006 25.9291 24.8358 25.9291H2.39723C1.93251 25.9291 1.55579 25.5524 1.55579 25.0877C1.55579 24.623 1.93251 24.2463 2.39723 24.2463H3.51916V10.5026C3.51916 8.38708 3.51916 7.32932 4.17637 6.6721C4.83359 6.01489 5.89135 6.01489 8.00688 6.01489ZM6.04351 9.38068C6.04351 8.91596 6.42024 8.53924 6.88495 8.53924H13.6165C14.0813 8.53924 14.458 8.91596 14.458 9.38068C14.458 9.8454 14.0813 10.2221 13.6165 10.2221H6.88495C6.42024 10.2221 6.04351 9.8454 6.04351 9.38068ZM6.04351 12.7465C6.04351 12.2818 6.42024 11.905 6.88495 11.905H13.6165C14.0813 11.905 14.458 12.2818 14.458 12.7465C14.458 13.2112 14.0813 13.5879 13.6165 13.5879H6.88495C6.42024 13.5879 6.04351 13.2112 6.04351 12.7465ZM6.04351 16.1123C6.04351 15.6475 6.42024 15.2708 6.88495 15.2708H13.6165C14.0813 15.2708 14.458 15.6475 14.458 16.1123C14.458 16.577 14.0813 16.9537 13.6165 16.9537H6.88495C6.42024 16.9537 6.04351 16.577 6.04351 16.1123ZM10.2507 20.8805C10.7155 20.8805 11.0922 21.2572 11.0922 21.7219V24.2463H9.4093V21.7219C9.4093 21.2572 9.78603 20.8805 10.2507 20.8805Z" fill="#FF33AC"/>
<path opacity="0.5" d="M16.9823 2.64911H19.2261C21.3417 2.64911 22.3994 2.64911 23.0567 3.30632C23.7139 3.96353 23.7139 5.0213 23.7139 7.13683V24.2463H16.9823V10.5026C16.9823 8.38709 16.9823 7.32932 16.3251 6.67211C15.6827 6.0297 14.6576 6.01523 12.6359 6.01491V4.33199C12.7305 3.89753 12.8884 3.56975 13.1518 3.30632C13.809 2.64911 14.8668 2.64911 16.9823 2.64911Z" fill="#FF33AC"/>
</svg>
