<svg width="28" height="28" viewBox="0 0 28 28" fill="none" xmlns="http://www.w3.org/2000/svg">
<path fill-rule="evenodd" clip-rule="evenodd" d="M12.8366 2.68884H15.0804C17.196 2.68884 18.2537 2.68884 18.911 3.34605C19.5682 4.00327 19.5682 5.06103 19.5682 7.17656V24.286H24.6168H25.1778C25.6425 24.286 26.0193 24.6627 26.0193 25.1274C26.0193 25.5922 25.6425 25.9689 25.1778 25.9689H2.73921C2.27449 25.9689 1.89777 25.5922 1.89777 25.1274C1.89777 24.6627 2.27449 24.286 2.73921 24.286H6.66597H8.34886V7.17656C8.34886 5.06103 8.34886 4.00327 9.00607 3.34605C9.66329 2.68884 10.7211 2.68884 12.8366 2.68884ZM13.9585 5.21319C14.4232 5.21319 14.8 5.58991 14.8 6.05463V7.45705H16.2024C16.6671 7.45705 17.0438 7.83377 17.0438 8.29849C17.0438 8.76321 16.6671 9.13994 16.2024 9.13994H14.8V10.5424C14.8 11.0071 14.4232 11.3838 13.9585 11.3838C13.4938 11.3838 13.1171 11.0071 13.1171 10.5424V9.13994H11.7147C11.2499 9.13994 10.8732 8.76321 10.8732 8.29849C10.8732 7.83377 11.2499 7.45705 11.7147 7.45705H13.1171V6.05463C13.1171 5.58991 13.4938 5.21319 13.9585 5.21319ZM10.8732 13.9081C10.8732 13.4434 11.2499 13.0667 11.7147 13.0667H16.2024C16.6671 13.0667 17.0438 13.4434 17.0438 13.9081C17.0438 14.3729 16.6671 14.7496 16.2024 14.7496H11.7147C11.2499 14.7496 10.8732 14.3729 10.8732 13.9081ZM10.8732 17.2739C10.8732 16.8092 11.2499 16.4325 11.7147 16.4325H16.2024C16.6671 16.4325 17.0438 16.8092 17.0438 17.2739C17.0438 17.7387 16.6671 18.1154 16.2024 18.1154H11.7147C11.2499 18.1154 10.8732 17.7387 10.8732 17.2739ZM13.9585 20.9202C14.4232 20.9202 14.8 21.2969 14.8 21.7617V24.286H13.1171V21.7617C13.1171 21.2969 13.4938 20.9202 13.9585 20.9202Z" fill="#FFAC33"/>
<path opacity="0.5" d="M24.2387 7.05179C24.6168 7.61775 24.6168 8.4056 24.6168 9.98131V24.2859H25.1778C25.6425 24.2859 26.0193 24.6626 26.0193 25.1274C26.0193 25.5921 25.6425 25.9688 25.1778 25.9688H2.73921C2.27449 25.9688 1.89777 25.5921 1.89777 25.1274C1.89777 24.6626 2.27449 24.2859 2.73921 24.2859H3.30018V9.98131C3.30018 8.4056 3.30018 7.61775 3.67834 7.05179C3.84205 6.80678 4.05241 6.59642 4.29742 6.43271C4.79244 6.10195 7.14347 6.06049 8.35674 6.0553C8.35213 6.38222 8.35217 6.72384 8.35221 7.07607L8.35222 7.17648V8.5789H5.54404C5.07932 8.5789 4.70259 8.95562 4.70259 9.42034C4.70259 9.88506 5.07932 10.2618 5.54404 10.2618H8.35222V11.9447H5.54404C5.07932 11.9447 4.70259 12.3214 4.70259 12.7861C4.70259 13.2509 5.07932 13.6276 5.54404 13.6276H8.35222V15.3105H5.54404C5.07932 15.3105 4.70259 15.6872 4.70259 16.1519C4.70259 16.6166 5.07932 16.9934 5.54404 16.9934H8.35222V24.2859H19.5715V16.9934H22.373C22.8377 16.9934 23.2144 16.6166 23.2144 16.1519C23.2144 15.6872 22.8377 15.3105 22.373 15.3105H19.5715V13.6276H22.373C22.8377 13.6276 23.2144 13.2509 23.2144 12.7861C23.2144 12.3214 22.8377 11.9447 22.373 11.9447H19.5715V10.2618H22.373C22.8377 10.2618 23.2144 9.88506 23.2144 9.42034C23.2144 8.95562 22.8377 8.5789 22.373 8.5789H19.5715V7.17648L19.5715 7.07608C19.5715 6.72384 19.5715 6.38222 19.5669 6.0553C20.7802 6.06049 23.1246 6.10195 23.6196 6.43271C23.8646 6.59642 24.075 6.80678 24.2387 7.05179Z" fill="#FFAC33"/>
</svg>
