<svg width="564" height="123" viewBox="0 0 564 123" fill="none" xmlns="http://www.w3.org/2000/svg">
<g clip-path="url(#clip0_336_4127)">
<path d="M138.173 88.276C133.803 88.276 130.307 85.056 130.307 80.341C130.307 75.626 133.803 72.406 138.173 72.406C141.186 72.406 143.072 73.855 144.268 75.649L142.313 76.684C141.508 75.396 139.99 74.453 138.173 74.453C135.068 74.453 132.676 76.891 132.676 80.341C132.676 83.768 135.068 86.229 138.173 86.229C139.99 86.229 141.508 85.286 142.313 83.998L144.268 85.033C143.049 86.827 141.186 88.276 138.173 88.276ZM154.013 88V86.482C153.162 87.402 151.759 88.276 150.057 88.276C147.688 88.276 146.515 87.08 146.515 84.734V76.891H148.585V84.044C148.585 85.884 149.505 86.436 150.931 86.436C152.219 86.436 153.392 85.7 154.013 84.872V76.891H156.083V88H154.013ZM158.397 86.551L159.386 85.033C160.145 85.861 161.617 86.62 163.112 86.62C164.676 86.62 165.504 85.976 165.504 85.033C165.504 83.929 164.239 83.561 162.813 83.239C160.927 82.802 158.719 82.296 158.719 79.904C158.719 78.133 160.237 76.615 162.951 76.615C164.86 76.615 166.24 77.305 167.183 78.202L166.263 79.651C165.619 78.869 164.377 78.294 162.974 78.294C161.571 78.294 160.697 78.846 160.697 79.743C160.697 80.709 161.893 81.031 163.273 81.353C165.205 81.79 167.505 82.319 167.505 84.872C167.505 86.781 165.941 88.276 163.02 88.276C161.157 88.276 159.524 87.701 158.397 86.551ZM173.18 88.276C171.432 88.276 170.535 87.287 170.535 85.539V78.708H168.695V76.891H170.535V73.855H172.605V76.891H174.859V78.708H172.605V85.079C172.605 85.861 172.973 86.436 173.686 86.436C174.169 86.436 174.606 86.229 174.813 85.999L175.342 87.563C174.905 87.977 174.261 88.276 173.18 88.276ZM182.074 88.276C178.624 88.276 176.462 85.654 176.462 82.434C176.462 79.237 178.624 76.615 182.074 76.615C185.547 76.615 187.686 79.237 187.686 82.434C187.686 85.654 185.547 88.276 182.074 88.276ZM182.074 86.436C184.305 86.436 185.524 84.55 185.524 82.434C185.524 80.341 184.305 78.455 182.074 78.455C179.866 78.455 178.624 80.341 178.624 82.434C178.624 84.55 179.866 86.436 182.074 86.436ZM203.815 88V80.594C203.815 79.306 203.24 78.455 201.883 78.455C200.756 78.455 199.652 79.237 199.123 80.042V88H197.053V80.594C197.053 79.306 196.501 78.455 195.098 78.455C194.017 78.455 192.936 79.26 192.384 80.065V88H190.314V76.891H192.384V78.455C192.844 77.765 194.316 76.615 195.972 76.615C197.651 76.615 198.64 77.489 198.985 78.685C199.629 77.65 201.101 76.615 202.734 76.615C204.781 76.615 205.885 77.742 205.885 79.973V88H203.815ZM208.491 82.434C208.491 79.214 210.814 76.615 214.057 76.615C217.392 76.615 219.462 79.214 219.462 82.618V83.124H210.676C210.837 85.01 212.217 86.574 214.448 86.574C215.621 86.574 216.909 86.114 217.737 85.263L218.703 86.62C217.599 87.701 216.035 88.276 214.241 88.276C210.929 88.276 208.491 85.93 208.491 82.434ZM214.057 78.317C211.826 78.317 210.768 80.111 210.653 81.629H217.438C217.392 80.157 216.403 78.317 214.057 78.317ZM222.051 88V76.891H224.121V78.593C224.972 77.489 226.283 76.638 227.755 76.638V78.731C227.548 78.685 227.318 78.662 227.042 78.662C226.007 78.662 224.604 79.444 224.121 80.272V88H222.051ZM234.855 85.838L236.166 84.067C237.201 85.217 238.857 86.229 240.996 86.229C243.48 86.229 244.354 84.964 244.354 83.86C244.354 82.25 242.606 81.79 240.651 81.284C238.19 80.64 235.338 79.927 235.338 76.799C235.338 74.269 237.569 72.429 240.766 72.429C243.135 72.429 244.998 73.188 246.355 74.568L245.021 76.27C243.848 75.028 242.238 74.476 240.582 74.476C238.88 74.476 237.707 75.35 237.707 76.638C237.707 78.018 239.363 78.455 241.272 78.938C243.779 79.605 246.7 80.387 246.7 83.653C246.7 86.045 245.044 88.276 240.904 88.276C238.167 88.276 236.166 87.287 234.855 85.838ZM256.817 88V80.847C256.817 79.007 255.874 78.455 254.448 78.455C253.16 78.455 251.987 79.237 251.389 80.065V88H249.319V72.659H251.389V78.455C252.125 77.558 253.62 76.615 255.322 76.615C257.691 76.615 258.887 77.811 258.887 80.157V88H256.817ZM270.101 88V86.413C269.273 87.517 267.939 88.276 266.467 88.276C263.569 88.276 261.499 86.091 261.499 82.457C261.499 78.892 263.569 76.615 266.467 76.615C267.893 76.615 269.227 77.305 270.101 78.501V76.891H272.171V88H270.101ZM270.101 84.826V80.111C269.526 79.214 268.284 78.478 267.019 78.478C264.949 78.478 263.661 80.134 263.661 82.457C263.661 84.757 264.949 86.436 267.019 86.436C268.284 86.436 269.526 85.723 270.101 84.826ZM275.486 88V76.891H277.556V78.593C278.407 77.489 279.718 76.638 281.19 76.638V78.731C280.983 78.685 280.753 78.662 280.477 78.662C279.442 78.662 278.039 79.444 277.556 80.272V88H275.486ZM282.567 82.434C282.567 79.214 284.89 76.615 288.133 76.615C291.468 76.615 293.538 79.214 293.538 82.618V83.124H284.752C284.913 85.01 286.293 86.574 288.524 86.574C289.697 86.574 290.985 86.114 291.813 85.263L292.779 86.62C291.675 87.701 290.111 88.276 288.317 88.276C285.005 88.276 282.567 85.93 282.567 82.434ZM288.133 78.317C285.902 78.317 284.844 80.111 284.729 81.629H291.514C291.468 80.157 290.479 78.317 288.133 78.317ZM302.103 88V72.659H309.302C312.039 72.659 313.626 74.338 313.626 76.569C313.626 78.501 312.361 79.789 310.958 80.088C312.591 80.341 313.925 81.997 313.925 83.86C313.925 86.275 312.315 88 309.486 88H302.103ZM304.403 79.168H308.865C310.406 79.168 311.257 78.202 311.257 76.937C311.257 75.672 310.406 74.683 308.865 74.683H304.403V79.168ZM304.403 85.976H308.98C310.59 85.976 311.556 85.056 311.556 83.561C311.556 82.296 310.682 81.192 308.98 81.192H304.403V85.976ZM324.636 88V86.413C323.808 87.517 322.474 88.276 321.002 88.276C318.104 88.276 316.034 86.091 316.034 82.457C316.034 78.892 318.104 76.615 321.002 76.615C322.428 76.615 323.762 77.305 324.636 78.501V76.891H326.706V88H324.636ZM324.636 84.826V80.111C324.061 79.214 322.819 78.478 321.554 78.478C319.484 78.478 318.196 80.134 318.196 82.457C318.196 84.757 319.484 86.436 321.554 86.436C322.819 86.436 324.061 85.723 324.636 84.826ZM329.055 86.551L330.044 85.033C330.803 85.861 332.275 86.62 333.77 86.62C335.334 86.62 336.162 85.976 336.162 85.033C336.162 83.929 334.897 83.561 333.471 83.239C331.585 82.802 329.377 82.296 329.377 79.904C329.377 78.133 330.895 76.615 333.609 76.615C335.518 76.615 336.898 77.305 337.841 78.202L336.921 79.651C336.277 78.869 335.035 78.294 333.632 78.294C332.229 78.294 331.355 78.846 331.355 79.743C331.355 80.709 332.551 81.031 333.931 81.353C335.863 81.79 338.163 82.319 338.163 84.872C338.163 86.781 336.599 88.276 333.678 88.276C331.815 88.276 330.182 87.701 329.055 86.551ZM341.792 75.028C341.079 75.028 340.458 74.453 340.458 73.717C340.458 72.981 341.079 72.383 341.792 72.383C342.528 72.383 343.126 72.981 343.126 73.717C343.126 74.453 342.528 75.028 341.792 75.028ZM340.78 88V76.891H342.85V88H340.78ZM345.458 82.434C345.458 79.099 347.758 76.615 351.116 76.615C353.209 76.615 354.474 77.489 355.279 78.57L353.899 79.835C353.232 78.892 352.335 78.455 351.208 78.455C349.023 78.455 347.62 80.134 347.62 82.434C347.62 84.734 349.023 86.436 351.208 86.436C352.335 86.436 353.232 85.976 353.899 85.056L355.279 86.321C354.474 87.402 353.209 88.276 351.116 88.276C347.758 88.276 345.458 85.769 345.458 82.434ZM363.534 88V72.659H369.008C373.792 72.659 376.966 75.925 376.966 80.341C376.966 84.78 373.792 88 369.008 88H363.534ZM365.834 85.976H369.008C372.55 85.976 374.597 83.446 374.597 80.341C374.597 77.19 372.619 74.683 369.008 74.683H365.834V85.976ZM379.014 82.434C379.014 79.214 381.337 76.615 384.58 76.615C387.915 76.615 389.985 79.214 389.985 82.618V83.124H381.199C381.36 85.01 382.74 86.574 384.971 86.574C386.144 86.574 387.432 86.114 388.26 85.263L389.226 86.62C388.122 87.701 386.558 88.276 384.764 88.276C381.452 88.276 379.014 85.93 379.014 82.434ZM384.58 78.317C382.349 78.317 381.291 80.111 381.176 81.629H387.961C387.915 80.157 386.926 78.317 384.58 78.317ZM395.633 88.276C393.885 88.276 392.988 87.287 392.988 85.539V78.708H391.148V76.891H392.988V73.855H395.058V76.891H397.312V78.708H395.058V85.079C395.058 85.861 395.426 86.436 396.139 86.436C396.622 86.436 397.059 86.229 397.266 85.999L397.795 87.563C397.358 87.977 396.714 88.276 395.633 88.276ZM407.517 88V86.413C406.689 87.517 405.355 88.276 403.883 88.276C400.985 88.276 398.915 86.091 398.915 82.457C398.915 78.892 400.985 76.615 403.883 76.615C405.309 76.615 406.643 77.305 407.517 78.501V76.891H409.587V88H407.517ZM407.517 84.826V80.111C406.942 79.214 405.7 78.478 404.435 78.478C402.365 78.478 401.077 80.134 401.077 82.457C401.077 84.757 402.365 86.436 404.435 86.436C405.7 86.436 406.942 85.723 407.517 84.826ZM413.914 75.028C413.201 75.028 412.58 74.453 412.58 73.717C412.58 72.981 413.201 72.383 413.914 72.383C414.65 72.383 415.248 72.981 415.248 73.717C415.248 74.453 414.65 75.028 413.914 75.028ZM412.902 88V76.891H414.972V88H412.902ZM420.915 88.276C419.144 88.276 418.27 87.287 418.27 85.539V72.659H420.34V85.079C420.34 85.861 420.708 86.436 421.421 86.436C421.904 86.436 422.318 86.229 422.525 85.999L423.077 87.563C422.64 87.977 421.973 88.276 420.915 88.276ZM423.683 86.551L424.672 85.033C425.431 85.861 426.903 86.62 428.398 86.62C429.962 86.62 430.79 85.976 430.79 85.033C430.79 83.929 429.525 83.561 428.099 83.239C426.213 82.802 424.005 82.296 424.005 79.904C424.005 78.133 425.523 76.615 428.237 76.615C430.146 76.615 431.526 77.305 432.469 78.202L431.549 79.651C430.905 78.869 429.663 78.294 428.26 78.294C426.857 78.294 425.983 78.846 425.983 79.743C425.983 80.709 427.179 81.031 428.559 81.353C430.491 81.79 432.791 82.319 432.791 84.872C432.791 86.781 431.227 88.276 428.306 88.276C426.443 88.276 424.81 87.701 423.683 86.551Z" fill="#2A2A2A"/>
</g>
<rect x="24" y="6" width="516" height="7" fill="#D9D9D9"/>
<rect x="14" width="19" height="19" rx="9.5" fill="#D9D9D9"/>
<rect x="143.25" width="19" height="19" rx="9.5" fill="#D9D9D9"/>
<rect x="272.5" width="19" height="19" rx="9.5" fill="#D9D9D9"/>
<rect x="401.75" width="19" height="19" rx="9.5" fill="#D9D9D9"/>
<rect x="531" width="19" height="19" rx="9.5" fill="#D9D9D9"/>
<rect x="17" y="3" width="13" height="13" rx="6.5" fill="#FF1680"/>
<rect x="28" y="7" width="1" height="5" fill="#FF1680"/>
<defs>
<clipPath id="clip0_336_4127">
<rect width="564" height="82" fill="white" transform="translate(0 41)"/>
</clipPath>
</defs>
</svg>
