<svg width="28" height="28" viewBox="0 0 28 28" fill="none" xmlns="http://www.w3.org/2000/svg">
<path fill-rule="evenodd" clip-rule="evenodd" d="M10.149 7.0935C10.1489 7.08794 10.1489 7.08237 10.1489 7.07679V5.95486C10.1489 3.63126 12.0325 1.74762 14.3561 1.74762C16.6797 1.74762 18.5633 3.63126 18.5633 5.95486V7.07679C18.5633 7.08237 18.5633 7.08794 18.5632 7.0935C20.0074 7.13685 20.8911 7.29264 21.5658 7.85257C22.5005 8.62835 22.7467 9.94151 23.2392 12.5678L24.0806 17.0555C24.7731 20.7486 25.1193 22.5951 24.1099 23.8114C23.1004 25.0277 21.2217 25.0277 17.4643 25.0277H11.2478C7.49043 25.0277 5.61173 25.0277 4.60231 23.8114C3.59289 22.5951 3.93911 20.7486 4.63156 17.0555L5.47301 12.5678C5.96544 9.94151 6.21166 8.62835 7.14642 7.85257C7.82109 7.29264 8.70481 7.13685 10.149 7.0935ZM11.8318 5.95486C11.8318 4.5607 12.9619 3.43051 14.3561 3.43051C15.7503 3.43051 16.8804 4.5607 16.8804 5.95486V7.07679C16.796 7.07676 16.7101 7.07679 16.6229 7.07679H12.0893C12.002 7.07679 11.9162 7.07679 11.8318 7.07681V5.95486ZM10.9903 15.151C10.9903 16.2555 12.2972 17.4225 13.2822 18.1453C13.7532 18.4908 13.9886 18.6636 14.3561 18.6636C14.7235 18.6636 14.959 18.4908 15.4299 18.1453C16.415 17.4225 17.7219 16.2555 17.7219 15.151C17.7219 13.2738 15.8706 12.5729 14.3561 14.023C12.8415 12.5729 10.9903 13.2738 10.9903 15.151Z" fill="#AB36FF"/>
<path d="M13.2822 18.1453C12.2972 17.4225 10.9903 16.2555 10.9903 15.151C10.9903 13.2738 12.8415 12.5729 14.3561 14.023C15.8706 12.5729 17.7219 13.2738 17.7219 15.151C17.7219 16.2555 16.415 17.4225 15.4299 18.1453C14.959 18.4908 14.7235 18.6636 14.3561 18.6636C13.9886 18.6636 13.7532 18.4908 13.2822 18.1453Z" fill="#C474FF"/>
</svg>
