<svg width="28" height="28" viewBox="0 0 28 28" fill="none" xmlns="http://www.w3.org/2000/svg">
<path fill-rule="evenodd" clip-rule="evenodd" d="M14.0881 1.61395H13.9714C12.9634 1.61392 12.1228 1.6139 11.4555 1.70361C10.7512 1.79831 10.1153 2.00662 9.60426 2.51762C9.09325 3.02863 8.88494 3.66454 8.79024 4.36888C8.70053 5.03618 8.70056 5.87674 8.70059 6.88476V6.97197C8.50711 6.9783 8.32022 6.98602 8.13962 6.99544V16.1991L11.8246 16.1991C12.0547 16.199 12.3035 16.1989 12.5136 16.2271C12.7596 16.2602 13.074 16.3453 13.3385 16.6098C13.6031 16.8744 13.6882 17.1887 13.7213 17.4348C13.7495 17.6448 13.7494 17.8937 13.7493 18.1238V19.323C13.7494 19.5531 13.7495 19.802 13.7213 20.012C13.6882 20.2581 13.6031 20.5724 13.3385 20.837C13.074 21.1015 12.7596 21.1866 12.5136 21.2197C12.3035 21.2479 12.0547 21.2478 11.8246 21.2478L8.13962 21.2477V24.8417C9.14331 24.894 10.3413 24.894 11.7859 24.894H16.2736C17.7182 24.894 18.9162 24.894 19.9199 24.8417V6.99544C19.7393 6.98602 19.5524 6.9783 19.3589 6.97197V6.88479C19.359 5.87677 19.359 5.03617 19.2693 4.36888C19.1746 3.66454 18.9663 3.02863 18.4553 2.51762C17.9443 2.00662 17.3083 1.79831 16.604 1.70361C15.9367 1.6139 15.0961 1.61392 14.0881 1.61395ZM17.676 6.94524V6.94312C17.676 5.86157 17.6742 5.13505 17.6014 4.59312C17.5318 4.07539 17.4115 3.85381 17.2653 3.70761C17.1191 3.5614 16.8975 3.44111 16.3798 3.3715C15.8378 3.29864 15.1113 3.29685 14.0298 3.29685C12.9482 3.29685 12.2217 3.29864 11.6798 3.3715C11.162 3.44111 10.9404 3.5614 10.7942 3.70761C10.648 3.85381 10.5277 4.07539 10.4581 4.59312C10.3853 5.13505 10.3835 5.86157 10.3835 6.94312V6.94524C10.8233 6.94312 11.2901 6.94312 11.7859 6.94312H16.2736C16.7694 6.94312 17.2362 6.94312 17.676 6.94524Z" fill="#3A9800"/>
<path d="M23.9346 23.5796C23.3525 24.1617 22.6133 24.486 21.6028 24.6667V7.17043C22.6133 7.35112 23.3525 7.67544 23.9346 8.25754C25.2491 9.57197 25.2491 11.6875 25.2491 15.9186C25.2491 20.1496 25.2491 22.2652 23.9346 23.5796Z" fill="#3A9800"/>
<path d="M4.12488 8.25754C4.70699 7.67544 5.44621 7.35112 6.45673 7.17043V16.2457C6.23217 16.2894 5.97082 16.3846 5.74558 16.6098C5.48102 16.8744 5.39594 17.1887 5.36286 17.4348C5.33462 17.6448 5.33472 17.8937 5.33481 18.1238V19.323C5.33472 19.5531 5.33462 19.802 5.36286 20.012C5.39594 20.2581 5.48102 20.5724 5.74558 20.837C5.97082 21.0622 6.23217 21.1574 6.45673 21.2011V24.6667C5.44621 24.486 4.70699 24.1617 4.12488 23.5796C2.81046 22.2652 2.81046 20.1496 2.81046 15.9186C2.81046 11.6875 2.81046 9.57197 4.12488 8.25754Z" fill="#3A9800"/>
<path d="M7.01771 18.1624C7.01771 18.0513 7.01775 17.9612 7.01901 17.8833C7.09693 17.882 7.18704 17.882 7.2982 17.882H11.7859C11.8971 17.882 11.9872 17.882 12.0651 17.8833C12.0664 17.9612 12.0664 18.0513 12.0664 18.1624V19.2844C12.0664 19.3955 12.0664 19.4856 12.0651 19.5636C11.9872 19.5648 11.8971 19.5649 11.7859 19.5649H7.2982C7.18704 19.5649 7.09693 19.5648 7.01901 19.5636C7.01775 19.4856 7.01771 19.3955 7.01771 19.2844V18.1624Z" fill="#63D71C"/>
</svg>
